<svg version="1.1" viewBox="0.0 0.0 960.0 540.0" fill="none" stroke="none" stroke-linecap="square" stroke-miterlimit="10" xmlns:xlink="http://www.w3.org/1999/xlink" xmlns="http://www.w3.org/2000/svg"><clipPath id="p.0"><path d="m0 0l960.0 0l0 540.0l-960.0 0l0 -540.0z" clip-rule="nonzero"/></clipPath><g clip-path="url(#p.0)"><path fill="#2a3990" d="m0 0l960.0 0l0 540.0l-960.0 0z" fill-rule="evenodd"/><path fill="#212d74" d="m853.41766 0.0016543308l106.58264 0l0 106.58267l-106.58264 0z" fill-rule="evenodd"/><path fill="#3949ab" d="m853.40295 106.58319l0 -106.58268l-106.58264 106.58268z" fill-rule="evenodd"/><path fill="#7890cd" d="m746.83344 0.011226509l0 106.58268l106.58264 -106.58268z" fill-rule="evenodd"/><path fill="#212d74" d="m746.83234 0.010170604l0 106.58268l-106.58264 -106.58268z" fill-rule="evenodd"/><path fill="#7890cd" d="m959.99884 106.60107l0 106.58268l-106.58264 -106.58268z" fill-rule="evenodd"/><path fill="#000000" fill-opacity="0.0" d="m62.792652 186.37505l863.2126 0l0 88.06297l-863.2126 0z" fill-rule="evenodd"/><path fill="#ffffff" d="m82.0739 212.18553l0 39.8125l-5.28125 0l0 -39.8125l5.28125 0zm13.871094 16.546875l0 23.265625l-5.0625 0l0 -29.59375l4.78125 0l0.28125 6.328125zm-1.203125 7.34375l-2.109375 -0.078125q0.03125 -3.03125 0.90625 -5.609375q0.875 -2.59375 2.453125 -4.5q1.59375 -1.921875 3.78125 -2.96875q2.203125 -1.0625 4.890625 -1.0625q2.1875 0 3.9375 0.59375q1.75 0.59375 2.984375 1.875q1.25 1.28125 1.90625 3.328125q0.65625 2.03125 0.65625 4.953125l0 19.390625l-5.078125 0l0 -19.4375q0 -2.328125 -0.6875 -3.734375q-0.6875 -1.40625 -2.0 -2.046875q-1.3125 -0.65625 -3.21875 -0.65625q-1.890625 0 -3.4375 0.796875q-1.546875 0.796875 -2.65625 2.1875q-1.109375 1.390625 -1.71875 3.1875q-0.609375 1.796875 -0.609375 3.78125zm39.45703 -13.671875l0 3.890625l-16.0 0l0 -3.890625l16.0 0zm-10.59375 -7.1875l5.0625 0l0 29.453125q0 1.5 0.46875 2.265625q0.46875 0.765625 1.203125 1.015625q0.734375 0.25 1.578125 0.25q0.640625 0 1.328125 -0.125q0.703125 -0.125 1.0625 -0.203125l0.015625 4.125q-0.59375 0.1875 -1.5625 0.359375q-0.96875 0.1875 -2.34375 0.1875q-1.859375 0 -3.421875 -0.734375q-1.546875 -0.75 -2.46875 -2.484375q-0.921875 -1.734375 -0.921875 -4.6875l0 -29.421875zm21.585938 11.84375l0 24.9375l-5.0625 0l0 -29.59375l4.921875 0l0.140625 4.65625zm9.234375 -4.8125l-0.03125 4.703125q-0.625 -0.140625 -1.1875 -0.171875q-0.5625 -0.046875 -1.265625 -0.046875q-1.75 0 -3.09375 0.546875q-1.34375 0.546875 -2.28125 1.53125q-0.921875 0.984375 -1.453125 2.34375q-0.53125 1.34375 -0.6875 2.953125l-1.421875 0.828125q0 -2.6875 0.53125 -5.03125q0.53125 -2.359375 1.640625 -4.171875q1.125 -1.8125 2.859375 -2.84375q1.75 -1.03125 4.15625 -1.03125q0.546875 0 1.25 0.125q0.71875 0.125 0.984375 0.265625zm2.7890625 15.28125l0 -0.625q0 -3.203125 0.921875 -5.953125q0.9375 -2.75 2.6875 -4.78125q1.75 -2.03125 4.234375 -3.171875q2.5 -1.140625 5.578125 -1.140625q3.125 0 5.625 1.140625q2.5 1.140625 4.265625 3.171875q1.765625 2.03125 2.6875 4.78125q0.9375 2.75 0.9375 5.953125l0 0.625q0 3.203125 -0.9375 5.9375q-0.921875 2.734375 -2.6875 4.78125q-1.765625 2.03125 -4.25 3.171875q-2.46875 1.125 -5.578125 1.125q-3.125 0 -5.609375 -1.125q-2.484375 -1.140625 -4.25 -3.171875q-1.765625 -2.046875 -2.703125 -4.78125q-0.921875 -2.734375 -0.921875 -5.9375zm5.0625 -0.625l0 0.625q0 2.21875 0.515625 4.171875q0.515625 1.953125 1.5625 3.46875q1.0625 1.5 2.640625 2.359375q1.59375 0.859375 3.703125 0.859375q2.078125 0 3.640625 -0.859375q1.578125 -0.859375 2.609375 -2.359375q1.046875 -1.515625 1.578125 -3.46875q0.53125 -1.953125 0.53125 -4.171875l0 -0.625q0 -2.1875 -0.53125 -4.140625q-0.53125 -1.953125 -1.59375 -3.46875q-1.046875 -1.53125 -2.625 -2.40625q-1.5625 -0.875 -3.671875 -0.875q-2.078125 0 -3.65625 0.875q-1.5625 0.875 -2.625 2.40625q-1.046875 1.515625 -1.5625 3.46875q-0.515625 1.953125 -0.515625 4.140625zm46.859375 9.34375l0 -36.25l5.09375 0l0 42.0l-4.65625 0l-0.4375 -5.75zm-19.90625 -8.71875l0 -0.578125q0 -3.390625 0.828125 -6.15625q0.84375 -2.78125 2.390625 -4.765625q1.546875 -2.0 3.6875 -3.078125q2.15625 -1.09375 4.796875 -1.09375q2.796875 0 4.890625 0.984375q2.09375 0.96875 3.546875 2.8125q1.46875 1.84375 2.3125 4.4375q0.84375 2.59375 1.171875 5.875l0 2.515625q-0.296875 3.265625 -1.15625 5.859375q-0.859375 2.59375 -2.328125 4.4375q-1.453125 1.828125 -3.5625 2.796875q-2.109375 0.96875 -4.921875 0.96875q-2.59375 0 -4.75 -1.125q-2.140625 -1.125 -3.6875 -3.140625q-1.546875 -2.03125 -2.390625 -4.765625q-0.828125 -2.75 -0.828125 -5.984375zm5.09375 -0.578125l0 0.578125q0 2.21875 0.453125 4.15625q0.453125 1.9375 1.40625 3.421875q0.953125 1.46875 2.421875 2.3125q1.484375 0.828125 3.53125 0.828125q2.515625 0 4.140625 -1.0625q1.640625 -1.0625 2.625 -2.8125q0.984375 -1.75 1.53125 -3.8125l0 -6.578125q-0.328125 -1.515625 -0.953125 -2.921875q-0.609375 -1.40625 -1.578125 -2.515625q-0.96875 -1.109375 -2.390625 -1.765625q-1.40625 -0.65625 -3.3125 -0.65625q-2.078125 0 -3.578125 0.875q-1.484375 0.859375 -2.4375 2.34375q-0.953125 1.484375 -1.40625 3.453125q-0.453125 1.953125 -0.453125 4.15625zm45.847656 8.203125l0 -22.75l5.09375 0l0 29.59375l-4.84375 0l-0.25 -6.84375zm0.96875 -6.234375l2.09375 -0.046875q0 2.953125 -0.609375 5.453125q-0.609375 2.5 -1.984375 4.34375q-1.359375 1.828125 -3.578125 2.859375q-2.21875 1.015625 -5.390625 1.015625q-2.15625 0 -3.953125 -0.625q-1.78125 -0.640625 -3.078125 -1.953125q-1.28125 -1.3125 -1.984375 -3.40625q-0.6875 -2.109375 -0.6875 -5.0625l0 -19.09375l5.0625 0l0 19.140625q0 2.0 0.4375 3.296875q0.453125 1.296875 1.234375 2.0625q0.78125 0.75 1.75 1.046875q0.96875 0.296875 2.015625 0.296875q3.21875 0 5.109375 -1.234375q1.890625 -1.25 2.71875 -3.359375q0.84375 -2.125 0.84375 -4.734375zm23.652359 9.46875q1.796875 0 3.328125 -0.734375q1.53125 -0.75 2.515625 -2.046875q0.984375 -1.296875 1.125 -2.96875l4.8125 0q-0.140625 2.625 -1.765625 4.890625q-1.625 2.25 -4.25 3.640625q-2.625 1.375 -5.765625 1.375q-3.34375 0 -5.828125 -1.171875q-2.46875 -1.1875 -4.0937653 -3.234375q-1.625 -2.046875 -2.4375 -4.703125q-0.796875 -2.671875 -0.796875 -5.65625l0 -1.15625q0 -2.96875 0.796875 -5.640625q0.8125 -2.671875 2.4375 -4.71875q1.6250153 -2.046875 4.0937653 -3.21875q2.484375 -1.1875 5.828125 -1.1875q3.46875 0 6.0625 1.421875q2.59375 1.40625 4.078125 3.828125q1.5 2.40625 1.640625 5.46875l-4.8125 0q-0.140625 -1.828125 -1.03125 -3.296875q-0.890625 -1.484375 -2.40625 -2.375q-1.515625 -0.890625 -3.53125 -0.890625q-2.328125 0 -3.90625 0.921875q-1.5625 0.921875 -2.484375 2.46875q-0.921875 1.53125 -1.3125 3.40625q-0.390625 1.875 -0.390625 3.8125l0 1.15625q0 1.9375 0.375 3.828125q0.390625 1.890625 1.296875 3.421875q0.921875 1.53125 2.484375 2.453125q1.578125 0.90625 3.9375 0.90625zm29.859375 -25.984375l0 3.890625l-16.0 0l0 -3.890625l16.0 0zm-10.59375 -7.1875l5.0625 0l0 29.453125q0 1.5 0.46875 2.265625q0.46875 0.765625 1.203125 1.015625q0.734375 0.25 1.578125 0.25q0.640625 0 1.328125 -0.125q0.703125 -0.125 1.0625 -0.203125l0.015625 4.125q-0.59375 0.1875 -1.5625 0.359375q-0.96875 0.1875 -2.34375 0.1875q-1.859375 0 -3.421875 -0.734375q-1.546875 -0.75 -2.46875 -2.484375q-0.921875 -1.734375 -0.921875 -4.6875l0 -29.421875zm22.023438 7.1875l0 29.59375l-5.09375 0l0 -29.59375l5.09375 0zm-5.46875 -7.84375q0 -1.234375 0.75 -2.078125q0.75 -0.84375 2.21875 -0.84375q1.453125 0 2.234375 0.84375q0.78125 0.84375 0.78125 2.078125q0 1.171875 -0.78125 2.015625q-0.78125 0.828125 -2.234375 0.828125q-1.46875 0 -2.21875 -0.828125q-0.75 -0.84375 -0.75 -2.015625zm12.2421875 22.96875l0 -0.625q0 -3.203125 0.921875 -5.953125q0.9375 -2.75 2.6875 -4.78125q1.75 -2.03125 4.234375 -3.171875q2.5 -1.140625 5.578125 -1.140625q3.125 0 5.625 1.140625q2.5 1.140625 4.265625 3.171875q1.765625 2.03125 2.6875 4.78125q0.9375 2.75 0.9375 5.953125l0 0.625q0 3.203125 -0.9375 5.9375q-0.921875 2.734375 -2.6875 4.78125q-1.765625 2.03125 -4.25 3.171875q-2.46875 1.125 -5.578125 1.125q-3.125 0 -5.609375 -1.125q-2.484375 -1.140625 -4.25 -3.171875q-1.765625 -2.046875 -2.703125 -4.78125q-0.921875 -2.734375 -0.921875 -5.9375zm5.0625 -0.625l0 0.625q0 2.21875 0.515625 4.171875q0.515625 1.953125 1.5625 3.46875q1.0625 1.5 2.640625 2.359375q1.59375 0.859375 3.703125 0.859375q2.078125 0 3.640625 -0.859375q1.578125 -0.859375 2.609375 -2.359375q1.046875 -1.515625 1.578125 -3.46875q0.53125 -1.953125 0.53125 -4.171875l0 -0.625q0 -2.1875 -0.53125 -4.140625q-0.53125 -1.953125 -1.59375 -3.46875q-1.046875 -1.53125 -2.625 -2.40625q-1.5625 -0.875 -3.671875 -0.875q-2.078125 0 -3.65625 0.875q-1.5625 0.875 -2.625 2.40625q-1.046875 1.515625 -1.5625 3.46875q-0.515625 1.953125 -0.515625 4.140625zm33.28125 -8.171875l0 23.265625l-5.0625 0l0 -29.59375l4.78125 0l0.28125 6.328125zm-1.203125 7.34375l-2.109375 -0.078125q0.03125 -3.03125 0.90625 -5.609375q0.875 -2.59375 2.453125 -4.5q1.59375 -1.921875 3.78125 -2.96875q2.203125 -1.0625 4.890625 -1.0625q2.1875 0 3.9375 0.59375q1.75 0.59375 2.984375 1.875q1.25 1.28125 1.90625 3.328125q0.65625 2.03125 0.65625 4.953125l0 19.390625l-5.078125 0l0 -19.4375q0 -2.328125 -0.6875 -3.734375q-0.6875 -1.40625 -2.0 -2.046875q-1.3125 -0.65625 -3.21875 -0.65625q-1.890625 0 -3.4375 0.796875q-1.546875 0.796875 -2.65625 2.1875q-1.109375 1.390625 -1.71875 3.1875q-0.609375 1.796875 -0.609375 3.78125z" fill-rule="nonzero"/><path fill="#000000" fill-opacity="0.0" d="m62.79141 285.13522l863.21265 0l0 45.448822l-863.21265 0z" fill-rule="evenodd"/><path fill="#ffffff" d="m74.69766 295.62015l2.359375 0l6.03125 15.0l6.015625 -15.0l2.390625 0l-7.484375 18.40625l-1.859375 0l-7.453125 -18.40625zm-0.765625 0l2.078125 0l0.34375 11.21875l0 7.1875l-2.421875 0l0 -18.40625zm16.234375 0l2.078125 0l0 18.40625l-2.421875 0l0 -7.1875l0.34375 -11.21875zm9.853729 16.984375l3.8125 -12.25l2.5 0l-5.484375 15.78125q-0.203125 0.5 -0.515625 1.09375q-0.296875 0.59375 -0.78125 1.125q-0.484375 0.53125 -1.15625 0.859375q-0.671875 0.34375 -1.609375 0.34375q-0.28125 0 -0.71875 -0.078125q-0.421875 -0.078125 -0.59375 -0.125l-0.015625 -1.90625q0.09375 0.015625 0.3125 0.03125q0.234375 0.015625 0.3125 0.015625q0.796875 0 1.359375 -0.203125q0.5625 -0.203125 0.9375 -0.703125q0.390625 -0.484375 0.671875 -1.328125l0.96875 -2.65625zm-2.796875 -12.25l3.5625 10.609375l0.59375 2.46875l-1.671875 0.859375l-5.03125 -13.9375l2.546875 0zm17.984604 -4.734375l6.09375 0q2.0625 0 3.5 0.640625q1.4375 0.625 2.1875 1.859375q0.75 1.234375 0.75 3.03125q0 1.25 -0.515625 2.296875q-0.5 1.046875 -1.453125 1.78125q-0.953125 0.71875 -2.28125 1.078125l-0.6875 0.265625l-5.734375 0l-0.015625 -1.984375l4.328125 0q1.3125 0 2.171875 -0.453125q0.875 -0.46875 1.3125 -1.25q0.453125 -0.796875 0.453125 -1.734375q0 -1.0625 -0.421875 -1.859375q-0.40625 -0.796875 -1.296875 -1.234375q-0.890625 -0.4375 -2.296875 -0.4375l-3.65625 0l0 16.40625l-2.4375 0l0 -18.40625zm10.75 18.40625l-4.46875 -8.34375l2.53125 -0.015625l4.546875 8.203125l0 0.15625l-2.609375 0zm4.2197113 -6.6875l0 -0.296875q0 -1.46875 0.421875 -2.734375q0.4375 -1.28125 1.25 -2.21875q0.8125 -0.9375 1.953125 -1.46875q1.15625 -0.53125 2.59375 -0.53125q1.4375 0 2.59375 0.53125q1.15625 0.53125 1.96875 1.46875q0.8125 0.9375 1.234375 2.21875q0.4375 1.265625 0.4375 2.734375l0 0.296875q0 1.484375 -0.4375 2.75q-0.421875 1.25 -1.234375 2.203125q-0.8125 0.9375 -1.953125 1.46875q-1.140625 0.515625 -2.59375 0.515625q-1.4375 0 -2.59375 -0.515625q-1.140625 -0.53125 -1.96875 -1.46875q-0.8125 -0.953125 -1.25 -2.203125q-0.421875 -1.265625 -0.421875 -2.75zm2.34375 -0.296875l0 0.296875q0 1.03125 0.234375 1.9375q0.25 0.890625 0.734375 1.59375q0.484375 0.6875 1.21875 1.09375q0.734375 0.390625 1.703125 0.390625q0.96875 0 1.6875 -0.390625q0.734375 -0.40625 1.203125 -1.09375q0.484375 -0.703125 0.734375 -1.59375q0.25 -0.90625 0.25 -1.9375l0 -0.296875q0 -1.0 -0.25 -1.90625q-0.25 -0.90625 -0.734375 -1.609375q-0.484375 -0.703125 -1.21875 -1.109375q-0.71875 -0.40625 -1.6875 -0.40625q-0.96875 0 -1.703125 0.40625q-0.71875 0.40625 -1.203125 1.109375q-0.484375 0.703125 -0.734375 1.609375q-0.234375 0.90625 -0.234375 1.90625zm15.593872 -12.4375l0 19.421875l-2.359375 0l0 -19.421875l2.359375 0zm9.42067 19.671875q-1.421875 0 -2.578125 -0.484375q-1.15625 -0.484375 -1.984375 -1.359375q-0.828125 -0.890625 -1.28125 -2.109375q-0.4375 -1.21875 -0.4375 -2.65625l0 -0.53125q0 -1.671875 0.484375 -2.96875q0.5 -1.3125 1.34375 -2.21875q0.859375 -0.921875 1.921875 -1.390625q1.078125 -0.46875 2.234375 -0.46875q1.46875 0 2.53125 0.515625q1.078125 0.5 1.75 1.40625q0.6875 0.90625 1.015625 2.125q0.328125 1.21875 0.328125 2.65625l0 1.046875l-10.21875 0l0 -1.90625l7.875 0l0 -0.171875q-0.046875 -0.90625 -0.375 -1.765625q-0.3125 -0.859375 -1.015625 -1.421875q-0.6875 -0.5625 -1.890625 -0.5625q-0.796875 0 -1.46875 0.34375q-0.671875 0.328125 -1.15625 0.984375q-0.46875 0.65625 -0.734375 1.609375q-0.265625 0.953125 -0.265625 2.1875l0 0.53125q0 0.96875 0.265625 1.828125q0.28125 0.859375 0.796875 1.5q0.53125 0.640625 1.28125 1.015625q0.75 0.359375 1.703125 0.359375q1.25 0 2.109375 -0.5q0.859375 -0.515625 1.5 -1.359375l1.421875 1.125q-0.453125 0.671875 -1.140625 1.28125q-0.671875 0.609375 -1.671875 0.984375q-0.984375 0.375 -2.34375 0.375zm16.025986 -3.875q0 -0.515625 -0.234375 -0.9375q-0.21875 -0.4375 -0.890625 -0.796875q-0.671875 -0.375 -2.03125 -0.640625q-1.125 -0.234375 -2.046875 -0.5625q-0.921875 -0.328125 -1.5625 -0.796875q-0.640625 -0.46875 -0.984375 -1.09375q-0.328125 -0.640625 -0.328125 -1.484375q0 -0.8125 0.359375 -1.53125q0.359375 -0.71875 1.015625 -1.265625q0.671875 -0.5625 1.609375 -0.875q0.9375 -0.328125 2.078125 -0.328125q1.640625 0 2.796875 0.59375q1.171875 0.578125 1.796875 1.546875q0.625 0.96875 0.625 2.140625l-2.34375 0q0 -0.578125 -0.34375 -1.109375q-0.328125 -0.53125 -0.96875 -0.890625q-0.640625 -0.359375 -1.5625 -0.359375q-0.96875 0 -1.578125 0.296875q-0.59375 0.296875 -0.875 0.765625q-0.265625 0.453125 -0.265625 0.953125q0 0.375 0.125 0.671875q0.140625 0.296875 0.484375 0.546875q0.34375 0.25 0.953125 0.46875q0.625 0.203125 1.59375 0.421875q1.671875 0.375 2.765625 0.90625q1.09375 0.53125 1.609375 1.3125q0.53125 0.765625 0.53125 1.859375q0 0.90625 -0.375 1.65625q-0.359375 0.734375 -1.0625 1.28125q-0.703125 0.53125 -1.671875 0.828125q-0.96875 0.296875 -2.171875 0.296875q-1.796875 0 -3.0625 -0.640625q-1.25 -0.640625 -1.890625 -1.65625q-0.640625 -1.03125 -0.640625 -2.171875l2.34375 0q0.0625 0.953125 0.5625 1.515625q0.5 0.5625 1.234375 0.796875q0.734375 0.234375 1.453125 0.234375q0.96875 0 1.609375 -0.25q0.65625 -0.25 1.0 -0.6875q0.34375 -0.453125 0.34375 -1.015625zm19.878342 1.28125l0 -7.03125q0 -0.8125 -0.328125 -1.40625q-0.3125 -0.609375 -0.96875 -0.9375q-0.640625 -0.328125 -1.578125 -0.328125q-0.890625 0 -1.5625 0.3125q-0.65625 0.296875 -1.03125 0.796875q-0.375 0.484375 -0.375 1.046875l-2.328125 0q0 -0.734375 0.375 -1.453125q0.375 -0.71875 1.09375 -1.296875q0.71875 -0.59375 1.71875 -0.9375q1.0 -0.359375 2.25 -0.359375q1.484375 0 2.625 0.515625q1.15625 0.5 1.796875 1.515625q0.65625 1.015625 0.65625 2.546875l0 6.375q0 0.6875 0.109375 1.453125q0.125 0.765625 0.375 1.328125l0 0.203125l-2.4375 0q-0.1875 -0.40625 -0.296875 -1.078125q-0.09375 -0.671875 -0.09375 -1.265625zm0.40625 -5.953125l0.03125 1.640625l-2.375 0q-0.984375 0 -1.78125 0.171875q-0.78125 0.15625 -1.3125 0.46875q-0.53125 0.3125 -0.8125 0.796875q-0.265625 0.46875 -0.265625 1.09375q0 0.65625 0.28125 1.1875q0.296875 0.515625 0.875 0.828125q0.59375 0.3125 1.453125 0.3125q1.078125 0 1.890625 -0.453125q0.828125 -0.453125 1.3125 -1.109375q0.484375 -0.65625 0.53125 -1.28125l1.0 1.125q-0.09375 0.53125 -0.484375 1.1875q-0.390625 0.640625 -1.046875 1.234375q-0.640625 0.578125 -1.53125 0.96875q-0.890625 0.375 -2.015625 0.375q-1.390625 0 -2.4375 -0.53125q-1.03125 -0.546875 -1.609375 -1.46875q-0.578125 -0.921875 -0.578125 -2.0625q0 -1.09375 0.421875 -1.9375q0.4375 -0.84375 1.25 -1.40625q0.8125 -0.5625 1.9375 -0.84375q1.140625 -0.296875 2.546875 -0.296875l2.71875 0zm7.958084 -2.46875l0 10.765625l-2.34375 0l0 -13.671875l2.21875 0l0.125 2.90625zm-0.5625 3.40625l-0.96875 -0.03125q0.015625 -1.40625 0.40625 -2.59375q0.40625 -1.203125 1.140625 -2.078125q0.734375 -0.890625 1.75 -1.375q1.03125 -0.5 2.265625 -0.5q1.015625 0 1.8125 0.28125q0.8125 0.265625 1.390625 0.859375q0.578125 0.59375 0.875 1.546875q0.3125 0.9375 0.3125 2.28125l0 8.96875l-2.359375 0l0 -8.984375q0 -1.078125 -0.3125 -1.71875q-0.3125 -0.65625 -0.921875 -0.953125q-0.609375 -0.296875 -1.5 -0.296875q-0.859375 0 -1.578125 0.375q-0.71875 0.359375 -1.234375 1.0q-0.5 0.640625 -0.796875 1.46875q-0.28125 0.828125 -0.28125 1.75zm21.141754 4.703125l0 -16.765625l2.34375 0l0 19.421875l-2.140625 0l-0.203125 -2.65625zm-9.203125 -4.03125l0 -0.265625q0 -1.5625 0.375 -2.84375q0.390625 -1.296875 1.109375 -2.21875q0.71875 -0.921875 1.703125 -1.421875q1.0 -0.5 2.21875 -0.5q1.296875 0 2.25 0.453125q0.96875 0.453125 1.640625 1.3125q0.6875 0.84375 1.078125 2.046875q0.390625 1.203125 0.546875 2.71875l0 1.15625q-0.140625 1.515625 -0.546875 2.71875q-0.390625 1.1875 -1.078125 2.046875q-0.671875 0.84375 -1.640625 1.296875q-0.96875 0.4375 -2.265625 0.4375q-1.203125 0 -2.203125 -0.515625q-0.984375 -0.515625 -1.703125 -1.453125q-0.71875 -0.9375 -1.109375 -2.203125q-0.375 -1.28125 -0.375 -2.765625zm2.34375 -0.265625l0 0.265625q0 1.03125 0.203125 1.921875q0.21875 0.890625 0.65625 1.578125q0.453125 0.6875 1.125 1.078125q0.6875 0.375 1.640625 0.375q1.15625 0 1.90625 -0.484375q0.75 -0.5 1.203125 -1.3125q0.46875 -0.8125 0.71875 -1.75l0 -3.046875q-0.15625 -0.703125 -0.4375 -1.34375q-0.28125 -0.65625 -0.734375 -1.171875q-0.453125 -0.515625 -1.109375 -0.8125q-0.640625 -0.296875 -1.53125 -0.296875q-0.953125 0 -1.640625 0.40625q-0.6875 0.390625 -1.140625 1.078125q-0.4375 0.6875 -0.65625 1.59375q-0.203125 0.890625 -0.203125 1.921875zm19.617249 -11.453125l6.09375 0q2.0625 0 3.5 0.640625q1.4375 0.625 2.1875 1.859375q0.75 1.234375 0.75 3.03125q0 1.25 -0.515625 2.296875q-0.5 1.046875 -1.453125 1.78125q-0.953125 0.71875 -2.28125 1.078125l-0.6875 0.265625l-5.734375 0l-0.015625 -1.984375l4.328125 0q1.3125 0 2.171875 -0.453125q0.875 -0.46875 1.3125 -1.25q0.453125 -0.796875 0.453125 -1.734375q0 -1.0625 -0.421875 -1.859375q-0.40625 -0.796875 -1.296875 -1.234375q-0.890625 -0.4375 -2.296875 -0.4375l-3.65625 0l0 16.40625l-2.4375 0l0 -18.40625zm10.75 18.40625l-4.46875 -8.34375l2.53125 -0.015625l4.546875 8.203125l0 0.15625l-2.609375 0zm10.516571 0.25q-1.4218597 0 -2.5781097 -0.484375q-1.15625 -0.484375 -1.984375 -1.359375q-0.828125 -0.890625 -1.28125 -2.109375q-0.4375 -1.21875 -0.4375 -2.65625l0 -0.53125q0 -1.671875 0.484375 -2.96875q0.5 -1.3125 1.34375 -2.21875q0.859375 -0.921875 1.921875 -1.390625q1.078125 -0.46875 2.2343597 -0.46875q1.46875 0 2.53125 0.515625q1.078125 0.5 1.75 1.40625q0.6875 0.90625 1.015625 2.125q0.328125 1.21875 0.328125 2.65625l0 1.046875l-10.218735 0l0 -1.90625l7.8749847 0l0 -0.171875q-0.046875 -0.90625 -0.375 -1.765625q-0.3125 -0.859375 -1.015625 -1.421875q-0.6875 -0.5625 -1.890625 -0.5625q-0.79685974 0 -1.4687347 0.34375q-0.671875 0.328125 -1.15625 0.984375q-0.46875 0.65625 -0.734375 1.609375q-0.265625 0.953125 -0.265625 2.1875l0 0.53125q0 0.96875 0.265625 1.828125q0.28125 0.859375 0.796875 1.5q0.53125 0.640625 1.28125 1.015625q0.75 0.359375 1.7031097 0.359375q1.25 0 2.109375 -0.5q0.859375 -0.515625 1.5 -1.359375l1.421875 1.125q-0.453125 0.671875 -1.140625 1.28125q-0.671875 0.609375 -1.671875 0.984375q-0.984375 0.375 -2.34375 0.375zm16.026001 -3.875q0 -0.515625 -0.234375 -0.9375q-0.21875 -0.4375 -0.890625 -0.796875q-0.671875 -0.375 -2.03125 -0.640625q-1.125 -0.234375 -2.046875 -0.5625q-0.921875 -0.328125 -1.5625 -0.796875q-0.640625 -0.46875 -0.984375 -1.09375q-0.328125 -0.640625 -0.328125 -1.484375q0 -0.8125 0.359375 -1.53125q0.359375 -0.71875 1.015625 -1.265625q0.671875 -0.5625 1.609375 -0.875q0.9375 -0.328125 2.078125 -0.328125q1.640625 0 2.796875 0.59375q1.171875 0.578125 1.796875 1.546875q0.625 0.96875 0.625 2.140625l-2.34375 0q0 -0.578125 -0.34375 -1.109375q-0.328125 -0.53125 -0.96875 -0.890625q-0.640625 -0.359375 -1.5625 -0.359375q-0.96875 0 -1.578125 0.296875q-0.59375 0.296875 -0.875 0.765625q-0.265625 0.453125 -0.265625 0.953125q0 0.375 0.125 0.671875q0.140625 0.296875 0.484375 0.546875q0.34375 0.25 0.953125 0.46875q0.625 0.203125 1.59375 0.421875q1.671875 0.375 2.765625 0.90625q1.09375 0.53125 1.609375 1.3125q0.53125 0.765625 0.53125 1.859375q0 0.90625 -0.375 1.65625q-0.359375 0.734375 -1.0625 1.28125q-0.703125 0.53125 -1.671875 0.828125q-0.96875 0.296875 -2.171875 0.296875q-1.796875 0 -3.0625 -0.640625q-1.25 -0.640625 -1.890625 -1.65625q-0.640625 -1.03125 -0.640625 -2.171875l2.34375 0q0.0625 0.953125 0.5625 1.515625q0.5 0.5625 1.234375 0.796875q0.734375 0.234375 1.453125 0.234375q0.96875 0 1.609375 -0.25q0.65625 -0.25 1.0 -0.6875q0.34375 -0.453125 0.34375 -1.015625zm7.737488 -7.421875l0 16.3125l-2.359375 0l0 -18.9375l2.15625 0l0.203125 2.625zm9.21875 4.09375l0 0.265625q0 1.484375 -0.359375 2.765625q-0.359375 1.265625 -1.03125 2.203125q-0.671875 0.9375 -1.671875 1.453125q-0.984375 0.515625 -2.25 0.515625q-1.3125 0 -2.3125 -0.421875q-0.984375 -0.4375 -1.6875 -1.25q-0.6875 -0.828125 -1.109375 -1.96875q-0.40625 -1.15625 -0.5625 -2.609375l0 -1.40625q0.15625 -1.515625 0.5625 -2.71875q0.421875 -1.203125 1.109375 -2.046875q0.703125 -0.859375 1.6875 -1.3125q0.984375 -0.453125 2.265625 -0.453125q1.296875 0 2.296875 0.5q1.0 0.5 1.671875 1.421875q0.6875 0.921875 1.03125 2.21875q0.359375 1.28125 0.359375 2.84375zm-2.359375 0.265625l0 -0.265625q0 -1.03125 -0.21875 -1.921875q-0.203125 -0.90625 -0.65625 -1.59375q-0.453125 -0.6875 -1.15625 -1.078125q-0.6875 -0.40625 -1.640625 -0.40625q-0.890625 0 -1.546875 0.296875q-0.640625 0.296875 -1.109375 0.8125q-0.453125 0.515625 -0.734375 1.171875q-0.28125 0.640625 -0.421875 1.34375l0 3.265625q0.25 0.890625 0.703125 1.671875q0.46875 0.78125 1.21875 1.25q0.765625 0.46875 1.90625 0.46875q0.953125 0 1.640625 -0.390625q0.6875 -0.40625 1.140625 -1.09375q0.453125 -0.703125 0.65625 -1.59375q0.21875 -0.90625 0.21875 -1.9375zm4.710083 0l0 -0.296875q0 -1.46875 0.421875 -2.734375q0.4375 -1.28125 1.25 -2.21875q0.8125 -0.9375 1.953125 -1.46875q1.15625 -0.53125 2.59375 -0.53125q1.4375 0 2.59375 0.53125q1.15625 0.53125 1.96875 1.46875q0.8125 0.9375 1.234375 2.21875q0.4375 1.265625 0.4375 2.734375l0 0.296875q0 1.484375 -0.4375 2.75q-0.421875 1.25 -1.234375 2.203125q-0.8125 0.9375 -1.953125 1.46875q-1.140625 0.515625 -2.59375 0.515625q-1.4375 0 -2.59375 -0.515625q-1.140625 -0.53125 -1.96875 -1.46875q-0.8125 -0.953125 -1.25 -2.203125q-0.421875 -1.265625 -0.421875 -2.75zm2.34375 -0.296875l0 0.296875q0 1.03125 0.234375 1.9375q0.25 0.890625 0.734375 1.59375q0.484375 0.6875 1.21875 1.09375q0.734375 0.390625 1.703125 0.390625q0.96875 0 1.6875 -0.390625q0.734375 -0.40625 1.203125 -1.09375q0.484375 -0.703125 0.734375 -1.59375q0.25 -0.90625 0.25 -1.9375l0 -0.296875q0 -1.0 -0.25 -1.90625q-0.25 -0.90625 -0.734375 -1.609375q-0.484375 -0.703125 -1.21875 -1.109375q-0.71875 -0.40625 -1.6875 -0.40625q-0.96875 0 -1.703125 0.40625q-0.71875 0.40625 -1.203125 1.109375q-0.484375 0.703125 -0.734375 1.609375q-0.234375 0.90625 -0.234375 1.90625zm15.390747 -3.78125l0 10.765625l-2.34375 0l0 -13.671875l2.21875 0l0.125 2.90625zm-0.5625 3.40625l-0.96875 -0.03125q0.015625 -1.40625 0.40625 -2.59375q0.40625 -1.203125 1.140625 -2.078125q0.734375 -0.890625 1.75 -1.375q1.03125 -0.5 2.265625 -0.5q1.015625 0 1.8125 0.28125q0.8125 0.265625 1.390625 0.859375q0.578125 0.59375 0.875 1.546875q0.3125 0.9375 0.3125 2.28125l0 8.96875l-2.359375 0l0 -8.984375q0 -1.078125 -0.3125 -1.71875q-0.3125 -0.65625 -0.921875 -0.953125q-0.609375 -0.296875 -1.5 -0.296875q-0.859375 0 -1.578125 0.375q-0.71875 0.359375 -1.234375 1.0q-0.5 0.640625 -0.796875 1.46875q-0.28125 0.828125 -0.28125 1.75zm20.485504 3.734375q0 -0.515625 -0.234375 -0.9375q-0.21875 -0.4375 -0.890625 -0.796875q-0.671875 -0.375 -2.03125 -0.640625q-1.125 -0.234375 -2.046875 -0.5625q-0.921875 -0.328125 -1.5625 -0.796875q-0.640625 -0.46875 -0.984375 -1.09375q-0.328125 -0.640625 -0.328125 -1.484375q0 -0.8125 0.359375 -1.53125q0.359375 -0.71875 1.015625 -1.265625q0.671875 -0.5625 1.609375 -0.875q0.9375 -0.328125 2.078125 -0.328125q1.640625 0 2.796875 0.59375q1.171875 0.578125 1.796875 1.546875q0.625 0.96875 0.625 2.140625l-2.34375 0q0 -0.578125 -0.34375 -1.109375q-0.328125 -0.53125 -0.96875 -0.890625q-0.640625 -0.359375 -1.5625 -0.359375q-0.96875 0 -1.578125 0.296875q-0.59375 0.296875 -0.875 0.765625q-0.265625 0.453125 -0.265625 0.953125q0 0.375 0.125 0.671875q0.140625 0.296875 0.484375 0.546875q0.34375 0.25 0.953125 0.46875q0.625 0.203125 1.59375 0.421875q1.671875 0.375 2.765625 0.90625q1.09375 0.53125 1.609375 1.3125q0.53125 0.765625 0.53125 1.859375q0 0.90625 -0.375 1.65625q-0.359375 0.734375 -1.0625 1.28125q-0.703125 0.53125 -1.671875 0.828125q-0.96875 0.296875 -2.171875 0.296875q-1.796875 0 -3.0625 -0.640625q-1.25 -0.640625 -1.890625 -1.65625q-0.640625 -1.03125 -0.640625 -2.171875l2.34375 0q0.0625 0.953125 0.5625 1.515625q0.5 0.5625 1.234375 0.796875q0.734375 0.234375 1.453125 0.234375q0.96875 0 1.609375 -0.25q0.65625 -0.25 1.0 -0.6875q0.34375 -0.453125 0.34375 -1.015625zm7.9406433 -10.046875l0 13.671875l-2.359375 0l0 -13.671875l2.359375 0zm-2.53125 -3.640625q0 -0.5625 0.34375 -0.953125q0.34375 -0.390625 1.03125 -0.390625q0.671875 0 1.03125 0.390625q0.359375 0.390625 0.359375 0.953125q0 0.546875 -0.359375 0.9375q-0.359375 0.390625 -1.03125 0.390625q-0.6875 0 -1.03125 -0.390625q-0.34375 -0.390625 -0.34375 -0.9375zm6.2644043 -2.109375l2.359375 0l0 16.765625l-0.203125 2.65625l-2.15625 0l0 -19.421875zm11.59375 12.46875l0 0.265625q0 1.484375 -0.359375 2.765625q-0.34375 1.265625 -1.03125 2.203125q-0.671875 0.9375 -1.671875 1.453125q-0.984375 0.515625 -2.25 0.515625q-1.3125 0 -2.296875 -0.4375q-0.96875 -0.453125 -1.640625 -1.296875q-0.671875 -0.859375 -1.078125 -2.046875q-0.390625 -1.203125 -0.546875 -2.71875l0 -1.15625q0.15625 -1.515625 0.546875 -2.71875q0.40625 -1.203125 1.078125 -2.046875q0.671875 -0.859375 1.640625 -1.3125q0.96875 -0.453125 2.265625 -0.453125q1.28125 0 2.28125 0.5q1.0 0.5 1.671875 1.421875q0.6875 0.921875 1.03125 2.21875q0.359375 1.28125 0.359375 2.84375zm-2.34375 0.265625l0 -0.265625q0 -1.03125 -0.203125 -1.921875q-0.1875 -0.90625 -0.609375 -1.59375q-0.40625 -0.6875 -1.09375 -1.078125q-0.671875 -0.40625 -1.671875 -0.40625q-0.890625 0 -1.546875 0.296875q-0.640625 0.296875 -1.09375 0.8125q-0.453125 0.515625 -0.75 1.171875q-0.28125 0.640625 -0.421875 1.34375l0 3.046875q0.203125 0.875 0.65625 1.703125q0.46875 0.8125 1.25 1.328125q0.78125 0.515625 1.921875 0.515625q0.953125 0 1.625 -0.375q0.6875 -0.390625 1.109375 -1.078125q0.421875 -0.6875 0.625 -1.578125q0.203125 -0.890625 0.203125 -1.921875zm7.850708 -6.984375l0 13.671875l-2.359375 0l0 -13.671875l2.359375 0zm-2.53125 -3.640625q0 -0.5625 0.34375 -0.953125q0.34375 -0.390625 1.03125 -0.390625q0.671875 0 1.03125 0.390625q0.359375 0.390625 0.359375 0.953125q0 0.546875 -0.359375 0.9375q-0.359375 0.390625 -1.03125 0.390625q-0.6875 0 -1.03125 -0.390625q-0.34375 -0.390625 -0.34375 -0.9375zm8.826904 -2.109375l0 19.421875l-2.359375 0l0 -19.421875l2.359375 0zm6.2956543 5.75l0 13.671875l-2.359375 0l0 -13.671875l2.359375 0zm-2.53125 -3.640625q0 -0.5625 0.34375 -0.953125q0.34375 -0.390625 1.03125 -0.390625q0.671875 0 1.03125 0.390625q0.359375 0.390625 0.359375 0.953125q0 0.546875 -0.359375 0.9375q-0.359375 0.390625 -1.03125 0.390625q-0.6875 0 -1.03125 -0.390625q-0.34375 -0.390625 -0.34375 -0.9375zm12.014404 3.640625l0 1.78125l-7.40625 0l0 -1.78125l7.40625 0zm-4.90625 -3.328125l2.34375 0l0 13.609375q0 0.703125 0.21875 1.0625q0.21875 0.34375 0.546875 0.46875q0.34375 0.109375 0.734375 0.109375q0.296875 0 0.609375 -0.0625q0.328125 -0.0625 0.5 -0.09375l0.015625 1.90625q-0.28125 0.09375 -0.734375 0.171875q-0.453125 0.078125 -1.078125 0.078125q-0.859375 0 -1.578125 -0.34375q-0.71875 -0.34375 -1.15625 -1.140625q-0.421875 -0.796875 -0.421875 -2.171875l0 -13.59375zm11.485718 15.578125l3.8125 -12.25l2.5 0l-5.484375 15.78125q-0.203125 0.5 -0.515625 1.09375q-0.296875 0.59375 -0.78125 1.125q-0.484375 0.53125 -1.15625 0.859375q-0.671875 0.34375 -1.609375 0.34375q-0.28125 0 -0.71875 -0.078125q-0.421875 -0.078125 -0.59375 -0.125l-0.015625 -1.90625q0.09375 0.015625 0.3125 0.03125q0.234375 0.015625 0.3125 0.015625q0.796875 0 1.359375 -0.203125q0.5625 -0.203125 0.9375 -0.703125q0.390625 -0.484375 0.671875 -1.328125l0.96875 -2.65625zm-2.796875 -12.25l3.5625 10.609375l0.59375 2.46875l-1.671875 0.859375l-5.03125 -13.9375l2.546875 0z" fill-rule="nonzero"/></g></svg>